<svg version="1.1" id="Layer_1" xmlns="http://www.w3.org/2000/svg" xmlns:xlink="http://www.w3.org/1999/xlink" x="0px" y="0px"
	 width="100%" viewBox="0 0 900 900" enable-background="new 0 0 900 900" xml:space="preserve">
<path fill="#FFFFFF" opacity="1.000000" stroke="none" 
	d="
M500.000000,901.000000 
	C333.333344,901.000000 167.166672,901.000000 1.000000,901.000000 
	C1.000000,601.000000 1.000000,301.000000 1.000000,1.000000 
	C301.000000,1.000000 601.000000,1.000000 901.000000,1.000000 
	C901.000000,301.000000 901.000000,601.000000 901.000000,901.000000 
	C767.500000,901.000000 634.000000,901.000000 500.000000,901.000000 
M185.000610,589.500000 
	C185.000610,668.917664 185.000610,748.335327 185.000610,827.730530 
	C250.416565,827.730530 315.168671,827.730530 379.973175,827.730530 
	C379.973175,804.047852 379.973175,780.660034 379.973175,756.790100 
	C347.057373,756.790100 314.480560,756.790100 281.224060,756.790100 
	C281.224060,592.967346 281.224060,429.627899 281.224060,266.308899 
	C248.796890,266.308899 217.056076,266.308899 185.000610,266.308899 
	C185.000610,373.911316 185.000610,481.205658 185.000610,589.500000 
M607.547119,269.999176 
	C604.780945,269.999176 602.014771,269.999176 599.356934,269.999176 
	C599.356934,457.367737 599.356934,644.075195 599.356934,830.141907 
	C625.686707,830.141907 651.681641,830.860168 677.617004,829.925293 
	C700.268677,829.108765 712.159241,818.449890 717.908447,796.547302 
	C722.766602,778.039185 723.868408,759.026184 723.897400,740.055847 
	C724.090637,613.405151 724.110229,486.753784 723.881470,360.103180 
	C723.845459,340.145050 722.746887,320.126709 716.969177,300.758850 
	C712.093445,284.414307 701.707520,274.067902 684.405029,271.775146 
	C677.326111,270.837128 670.163391,270.170319 663.029724,270.077667 
	C644.868286,269.841797 626.701721,269.999207 607.547119,269.999176 
M410.688904,48.169060 
	C343.047607,85.836983 275.406342,123.504906 207.054474,161.568527 
	C241.521576,176.344009 275.293488,190.821487 309.357300,205.424088 
	C309.357300,220.485382 309.357300,235.233810 309.357300,248.393799 
	C312.880035,244.368622 316.304901,238.761169 321.222595,235.236710 
	C328.440247,230.063934 336.389771,225.552063 344.619019,222.219208 
	C368.464386,212.561798 393.655365,208.947632 419.183990,207.541473 
	C452.150177,205.725632 484.835083,207.809158 516.624939,217.184555 
	C536.443787,223.029480 556.252197,229.603378 567.000610,250.386475 
	C567.000610,226.737289 567.075562,203.577820 566.915527,180.419983 
	C566.892944,177.145798 567.855042,175.465698 570.747986,173.874313 
	C597.830322,158.976624 624.812805,143.897385 651.818542,128.860550 
	C653.655273,127.837845 655.446655,126.733505 657.602722,125.464958 
	C656.269226,124.803848 655.403625,124.321571 654.497742,123.933243 
	C583.992981,93.710411 513.491882,63.478924 442.934937,33.378353 
	C441.299683,32.680733 438.700043,32.831367 437.115143,33.662991 
	C428.435394,38.217468 419.932220,43.108555 410.688904,48.169060 
M569.000000,738.500000 
	C569.085632,600.378235 569.193481,462.256409 569.205505,324.134613 
	C569.206299,315.158051 568.834534,306.147705 568.004089,297.211761 
	C566.188232,277.671051 558.069641,267.951965 538.698242,266.000183 
	C521.744141,264.291931 504.398743,264.074280 487.428162,265.538788 
	C466.985413,267.302887 460.096832,274.965576 456.545441,295.216766 
	C455.458435,301.415070 455.032196,307.802643 455.020752,314.104828 
	C454.910919,374.585175 454.884613,435.066040 455.044678,495.546173 
	C455.064453,502.999512 455.855896,510.526215 457.087402,517.885437 
	C459.719055,533.611633 467.885834,542.247986 483.666504,543.885620 
	C498.340118,545.408386 513.209351,545.049561 527.992859,545.505615 
	C529.566162,545.554138 531.142212,545.512024 533.111389,545.512024 
	C533.111389,641.105713 533.111389,736.337036 533.111389,831.692383 
	C545.234009,831.692383 556.953247,831.692383 568.590881,831.692383 
	C568.770264,831.081726 568.938721,830.775391 568.939026,830.468994 
	C568.967590,800.145996 568.983398,769.822998 569.000000,738.500000 
M422.317566,375.500061 
	C422.317535,362.340179 422.482544,349.177673 422.271088,336.021179 
	C422.059845,322.879791 422.052673,309.693756 420.911163,296.618500 
	C419.245178,277.535431 410.854645,268.761536 392.192047,265.765167 
	C374.822449,262.976410 357.277405,263.083282 339.909821,265.372772 
	C319.925171,268.007294 312.886414,275.171417 309.503632,295.153839 
	C308.315674,302.171112 308.001007,309.404724 307.985138,316.541107 
	C307.857849,373.843750 307.857697,431.146881 307.933411,488.449677 
	C307.943512,496.096863 308.369934,503.761719 308.994720,511.386353 
	C310.716492,532.398193 319.339386,542.087158 339.912140,544.674194 
	C357.960876,546.943909 376.149780,547.004517 394.182129,543.999939 
	C408.959412,541.537720 416.897186,533.896179 419.901703,519.238342 
	C421.065674,513.559875 421.935760,507.708221 421.970978,501.929535 
	C422.225769,460.120575 422.232483,418.310059 422.317566,375.500061 
z"/>
<path fill="#2874AE" opacity="1.000000" stroke="none" 
	d="
M185.000610,589.000000 
	C185.000610,481.205658 185.000610,373.911316 185.000610,266.308899 
	C217.056076,266.308899 248.796890,266.308899 281.224060,266.308899 
	C281.224060,429.627899 281.224060,592.967346 281.224060,756.790100 
	C314.480560,756.790100 347.057373,756.790100 379.973175,756.790100 
	C379.973175,780.660034 379.973175,804.047852 379.973175,827.730530 
	C315.168671,827.730530 250.416565,827.730530 185.000610,827.730530 
	C185.000610,748.335327 185.000610,668.917664 185.000610,589.000000 
z"/>
<path fill="#2974AE" opacity="1.000000" stroke="none" 
	d="
M608.042175,269.999176 
	C626.701721,269.999207 644.868286,269.841797 663.029724,270.077667 
	C670.163391,270.170319 677.326111,270.837128 684.405029,271.775146 
	C701.707520,274.067902 712.093445,284.414307 716.969177,300.758850 
	C722.746887,320.126709 723.845459,340.145050 723.881470,360.103180 
	C724.110229,486.753784 724.090637,613.405151 723.897400,740.055847 
	C723.868408,759.026184 722.766602,778.039185 717.908447,796.547302 
	C712.159241,818.449890 700.268677,829.108765 677.617004,829.925293 
	C651.681641,830.860168 625.686707,830.141907 599.356934,830.141907 
	C599.356934,644.075195 599.356934,457.367737 599.356934,269.999176 
	C602.014771,269.999176 604.780945,269.999176 608.042175,269.999176 
M642.774048,620.500000 
	C642.774048,667.102173 642.774048,713.704346 642.774048,760.559875 
	C650.765381,760.559875 658.225220,760.839661 665.653870,760.478577 
	C672.622314,760.139832 676.676575,755.641968 677.700745,749.128113 
	C678.911255,741.429382 679.825439,733.593811 679.852905,725.813965 
	C680.047546,670.666321 679.996094,615.517700 679.995483,560.369446 
	C679.994751,498.556702 680.037231,436.743744 679.854919,374.931488 
	C679.832520,367.318909 678.898010,359.654938 677.724854,352.117676 
	C676.845459,346.467438 673.441101,341.924774 667.336792,341.524841 
	C659.277832,340.996826 651.158325,341.394928 642.773865,341.394928 
	C642.773865,434.266724 642.773865,526.883362 642.774048,620.500000 
z"/>
<path fill="#010101" opacity="1.000000" stroke="none" 
	d="
M411.028656,48.026535 
	C419.932220,43.108555 428.435394,38.217468 437.115143,33.662991 
	C438.700043,32.831367 441.299683,32.680733 442.934937,33.378353 
	C513.491882,63.478924 583.992981,93.710411 654.497742,123.933243 
	C655.403625,124.321571 656.269226,124.803848 657.602722,125.464958 
	C655.446655,126.733505 653.655273,127.837845 651.818542,128.860550 
	C624.812805,143.897385 597.830322,158.976624 570.747986,173.874313 
	C567.855042,175.465698 566.892944,177.145798 566.915527,180.419983 
	C567.075562,203.577820 567.000610,226.737289 567.000610,250.386475 
	C556.252197,229.603378 536.443787,223.029480 516.624939,217.184555 
	C484.835083,207.809158 452.150177,205.725632 419.183990,207.541473 
	C393.655365,208.947632 368.464386,212.561798 344.619019,222.219208 
	C336.389771,225.552063 328.440247,230.063934 321.222595,235.236710 
	C316.304901,238.761169 312.880035,244.368622 309.357300,248.393799 
	C309.357300,235.233810 309.357300,220.485382 309.357300,205.424088 
	C275.293488,190.821487 241.521576,176.344009 207.054474,161.568527 
	C275.406342,123.504906 343.047607,85.836983 411.028656,48.026535 
z"/>
<path fill="#FFD100" opacity="1.000000" stroke="none" 
	d="
M569.000000,739.000000 
	C568.983398,769.822998 568.967590,800.145996 568.939026,830.468994 
	C568.938721,830.775391 568.770264,831.081726 568.590881,831.692383 
	C556.953247,831.692383 545.234009,831.692383 533.111389,831.692383 
	C533.111389,736.337036 533.111389,641.105713 533.111389,545.512024 
	C531.142212,545.512024 529.566162,545.554138 527.992859,545.505615 
	C513.209351,545.049561 498.340118,545.408386 483.666504,543.885620 
	C467.885834,542.247986 459.719055,533.611633 457.087402,517.885437 
	C455.855896,510.526215 455.064453,502.999512 455.044678,495.546173 
	C454.884613,435.066040 454.910919,374.585175 455.020752,314.104828 
	C455.032196,307.802643 455.458435,301.415070 456.545441,295.216766 
	C460.096832,274.965576 466.985413,267.302887 487.428162,265.538788 
	C504.398743,264.074280 521.744141,264.291931 538.698242,266.000183 
	C558.069641,267.951965 566.188232,277.671051 568.004089,297.211761 
	C568.834534,306.147705 569.206299,315.158051 569.205505,324.134613 
	C569.193481,462.256409 569.085632,600.378235 569.000000,739.000000 
M494.999847,486.487518 
	C495.005524,487.986115 495.006042,489.484741 495.017700,490.983307 
	C495.150513,508.073486 498.952423,511.557892 515.952026,510.172668 
	C524.474976,509.478180 527.368347,506.826721 528.650208,498.354584 
	C528.922607,496.554230 528.945862,494.703857 528.946289,492.876465 
	C528.960449,434.265594 528.970703,375.654694 528.916931,317.043854 
	C528.914368,314.242401 528.577026,311.383942 527.956055,308.651917 
	C526.516296,302.317291 523.072815,300.170319 514.771667,300.019684 
	C502.126343,299.790192 497.660889,301.541595 496.199768,308.285736 
	C495.225708,312.781769 495.053162,317.517700 495.046936,322.147003 
	C494.973694,376.595215 494.999817,431.043579 494.999847,486.487518 
z"/>
<path fill="#2974AE" opacity="1.000000" stroke="none" 
	d="
M422.317688,376.000061 
	C422.232483,418.310059 422.225769,460.120575 421.970978,501.929535 
	C421.935760,507.708221 421.065674,513.559875 419.901703,519.238342 
	C416.897186,533.896179 408.959412,541.537720 394.182129,543.999939 
	C376.149780,547.004517 357.960876,546.943909 339.912140,544.674194 
	C319.339386,542.087158 310.716492,532.398193 308.994720,511.386353 
	C308.369934,503.761719 307.943512,496.096863 307.933411,488.449677 
	C307.857697,431.146881 307.857849,373.843750 307.985138,316.541107 
	C308.001007,309.404724 308.315674,302.171112 309.503632,295.153839 
	C312.886414,275.171417 319.925171,268.007294 339.909821,265.372772 
	C357.277405,263.083282 374.822449,262.976410 392.192047,265.765167 
	C410.854645,268.761536 419.245178,277.535431 420.911163,296.618500 
	C422.052673,309.693756 422.059845,322.879791 422.271088,336.021179 
	C422.482544,349.177673 422.317535,362.340179 422.317688,376.000061 
M348.000000,382.500000 
	C348.000092,417.484039 347.985992,452.468109 348.020569,487.452118 
	C348.024323,491.275238 347.966370,495.149506 348.531982,498.910583 
	C349.792511,507.292847 352.619690,509.665588 361.025787,510.178497 
	C378.115204,511.221313 381.935974,507.785645 381.952759,490.740906 
	C382.009064,433.600433 382.007782,376.459808 381.951965,319.319336 
	C381.935394,302.331848 378.517792,299.228271 361.477661,300.055511 
	C353.123718,300.461060 349.786194,303.335876 348.442993,311.559021 
	C348.069733,313.844025 348.046936,316.203339 348.042847,318.528870 
	C348.005829,339.519196 348.008759,360.509613 348.000000,382.500000 
z"/>
<path fill="#FFFFFF" opacity="1.000000" stroke="none" 
	d="
M642.773926,620.000000 
	C642.773865,526.883362 642.773865,434.266724 642.773865,341.394928 
	C651.158325,341.394928 659.277832,340.996826 667.336792,341.524841 
	C673.441101,341.924774 676.845459,346.467438 677.724854,352.117676 
	C678.898010,359.654938 679.832520,367.318909 679.854919,374.931488 
	C680.037231,436.743744 679.994751,498.556702 679.995483,560.369446 
	C679.996094,615.517700 680.047546,670.666321 679.852905,725.813965 
	C679.825439,733.593811 678.911255,741.429382 677.700745,749.128113 
	C676.676575,755.641968 672.622314,760.139832 665.653870,760.478577 
	C658.225220,760.839661 650.765381,760.559875 642.774048,760.559875 
	C642.774048,713.704346 642.774048,667.102173 642.773926,620.000000 
z"/>
<path fill="#FFFFFE" opacity="1.000000" stroke="none" 
	d="
M494.999817,485.989685 
	C494.999817,431.043579 494.973694,376.595215 495.046936,322.147003 
	C495.053162,317.517700 495.225708,312.781769 496.199768,308.285736 
	C497.660889,301.541595 502.126343,299.790192 514.771667,300.019684 
	C523.072815,300.170319 526.516296,302.317291 527.956055,308.651917 
	C528.577026,311.383942 528.914368,314.242401 528.916931,317.043854 
	C528.970703,375.654694 528.960449,434.265594 528.946289,492.876465 
	C528.945862,494.703857 528.922607,496.554230 528.650208,498.354584 
	C527.368347,506.826721 524.474976,509.478180 515.952026,510.172668 
	C498.952423,511.557892 495.150513,508.073486 495.017700,490.983307 
	C495.006042,489.484741 495.005524,487.986115 494.999817,485.989685 
z"/>
<path fill="#FFFFFF" opacity="1.000000" stroke="none" 
	d="
M348.000000,382.000000 
	C348.008759,360.509613 348.005829,339.519196 348.042847,318.528870 
	C348.046936,316.203339 348.069733,313.844025 348.442993,311.559021 
	C349.786194,303.335876 353.123718,300.461060 361.477661,300.055511 
	C378.517792,299.228271 381.935394,302.331848 381.951965,319.319336 
	C382.007782,376.459808 382.009064,433.600433 381.952759,490.740906 
	C381.935974,507.785645 378.115204,511.221313 361.025787,510.178497 
	C352.619690,509.665588 349.792511,507.292847 348.531982,498.910583 
	C347.966370,495.149506 348.024323,491.275238 348.020569,487.452118 
	C347.985992,452.468109 348.000092,417.484039 348.000000,382.000000 
z"/>
</svg>