<svg width="542" height="145" viewBox="0 0 542 145" fill="none" xmlns="http://www.w3.org/2000/svg">
<rect x="0.0803223" y="-2.81848" width="541.92" height="147.09" fill="#2774AE"/>
<g opacity="0.2">
<path d="M271.04 70.7264V144.271H203.3C203.3 103.651 233.626 70.7264 271.04 70.7264Z" fill="#8D83FF"/>
<path d="M271.04 -2.81848V70.7263C233.626 70.7263 203.3 37.8018 203.3 -2.81848H271.04Z" fill="#8D83FF"/>
<path d="M135.56 -2.81848H203.3C203.3 37.8018 172.974 70.7263 135.56 70.7263V-2.81848Z" fill="#8D83FF"/>
<path d="M203.3 144.271H135.56V70.7264C172.974 70.7264 203.3 103.651 203.3 144.271Z" fill="#8D83FF"/>
</g>
<path opacity="0.3" d="M0.0803223 144.271C74.9038 144.271 135.56 83.6147 135.56 8.79121V-2.81839H0.0803223V144.271Z" fill="#EBE9FF"/>
<ellipse opacity="0.15" cx="474.26" cy="70.7264" rx="67.74" ry="73.5448" transform="rotate(180 474.26 70.7264)" fill="#AFA7FF"/>
<path d="M347.923 7.1247C347.923 12.6019 338.78 71.4393 338.78 71.4393C338.78 71.4393 329.637 12.6019 329.637 7.1247C329.637 4.4876 330.6 1.95851 332.315 0.093807C334.03 -1.7709 336.355 -2.81848 338.78 -2.81848C341.205 -2.81848 343.531 -1.7709 345.245 0.093807C346.96 1.95851 347.923 4.4876 347.923 7.1247Z" fill="#FFD100"/>
<path d="M329.637 134.328C329.637 128.851 338.78 70.0131 338.78 70.0131C338.78 70.0131 347.923 128.851 347.923 134.328C347.923 136.965 346.96 139.494 345.245 141.359C343.531 143.223 341.205 144.271 338.78 144.271C336.355 144.271 334.03 143.223 332.315 141.359C330.6 139.494 329.637 136.965 329.637 134.328Z" fill="#FFD100"/>
<path d="M397.362 80.6527C392.318 80.6527 338.124 70.726 338.124 70.726C338.124 70.726 392.318 60.7994 397.362 60.7994C399.791 60.7994 402.121 61.8452 403.838 63.7068C405.556 65.5684 406.521 68.0933 406.521 70.726C406.521 73.3587 405.556 75.8836 403.838 77.7452C402.121 79.6068 399.791 80.6527 397.362 80.6527Z" fill="#FFD100"/>
<path d="M280.199 60.7994C285.243 60.7994 339.437 70.726 339.437 70.726C339.437 70.726 285.243 80.6527 280.199 80.6527C277.77 80.6527 275.44 79.6068 273.723 77.7452C272.005 75.8836 271.04 73.3587 271.04 70.726C271.04 68.0933 272.005 65.5684 273.723 63.7068C275.44 61.8452 277.77 60.7994 280.199 60.7994Z" fill="#FFD100"/>
<path d="M386.759 32.8024C383.165 36.6757 338.326 71.2199 338.326 71.2199C338.326 71.2199 370.207 22.6349 373.782 18.7405C374.634 17.8172 375.646 17.0848 376.759 16.5851C377.872 16.0854 379.065 15.8282 380.271 15.8282C381.476 15.8282 382.669 16.0854 383.782 16.5851C384.896 17.0848 385.907 17.8172 386.759 18.7405C387.611 19.6638 388.287 20.7599 388.749 21.9663C389.21 23.1727 389.447 24.4657 389.447 25.7714C389.447 27.0772 389.21 28.3702 388.749 29.5766C388.287 30.7829 387.611 31.8791 386.759 32.8024Z" fill="#FFD100"/>
<path d="M290.898 108.726C294.485 104.845 339.235 70.2326 339.235 70.2326C339.235 70.2326 307.417 118.914 303.85 122.816C302.132 124.684 299.803 125.734 297.374 125.734C294.945 125.734 292.615 124.684 290.898 122.816C289.18 120.948 288.215 118.413 288.215 115.771C288.215 113.129 289.18 110.595 290.898 108.726Z" fill="#FFD100"/>
<path d="M373.782 122.816C370.207 118.914 338.326 70.2326 338.326 70.2326C338.326 70.2326 383.165 104.845 386.759 108.726C388.48 110.595 389.447 113.129 389.447 115.771C389.447 118.413 388.48 120.948 386.759 122.816C385.038 124.684 382.704 125.734 380.271 125.734C377.837 125.734 375.503 124.684 373.782 122.816Z" fill="#FFD100"/>
<path d="M303.85 18.7405C307.417 22.6349 339.235 71.2199 339.235 71.2199C339.235 71.2199 294.485 36.6757 290.898 32.8024C290.047 31.8791 289.373 30.7829 288.912 29.5766C288.452 28.3702 288.215 27.0772 288.215 25.7714C288.215 24.4657 288.452 23.1727 288.912 21.9663C289.373 20.7599 290.047 19.6638 290.898 18.7405C291.748 17.8172 292.758 17.0848 293.869 16.5851C294.98 16.0854 296.171 15.8282 297.374 15.8282C298.577 15.8282 299.767 16.0854 300.879 16.5851C301.99 17.0848 302.999 17.8172 303.85 18.7405Z" fill="#FFD100"/>
</svg>
