<svg width="50" height="50" viewBox="0 0 50 50" fill="none" xmlns="http://www.w3.org/2000/svg">
<path d="M18.9373 18.75C19.4271 17.3576 20.3939 16.1836 21.6664 15.4357C22.9389 14.6878 24.435 14.4145 25.8898 14.664C27.3445 14.9135 28.664 15.6698 29.6146 16.799C30.5651 17.9282 31.0854 19.3573 31.0832 20.8333C31.0832 25 24.8332 27.0833 24.8332 27.0833M24.9998 35.4167H25.0207M45.8332 25C45.8332 36.5059 36.5058 45.8333 24.9998 45.8333C13.4939 45.8333 4.1665 36.5059 4.1665 25C4.1665 13.4941 13.4939 4.16667 24.9998 4.16667C36.5058 4.16667 45.8332 13.4941 45.8332 25Z" stroke="#2774AE" stroke-width="4" stroke-linecap="round" stroke-linejoin="round"/>
</svg>
